{"title":"BBC Japão Selvagem 2015 HDTV 720p Legendado PT-BT","uid":15826516,"size":3212302135,"categoryP":"video","categoryS":"hd___tv_shows","magnet":"?xt=urn:btih:1e02f994d9ec19537effda67644cb05c64b50188&amp;dn=BBC+Jap%26atilde%3Bo+Selvagem+2015+HDTV+720p+Legendado+PT-BT&amp;tr=udp%3A%2F%2Ftracker.leechers-paradise.org%3A6969&amp;tr=udp%3A%2F%2Fzer0day.ch%3A1337&amp;tr=udp%3A%2F%2Fopen.demonii.com%3A1337&amp;tr=udp%3A%2F%2Ftracker.coppersurfer.tk%3A6969&amp;tr=udp%3A%2F%2Fexodus.desync.com%3A6969","seeders":0,"leechers":3,"uploader":null,"files":3,"time":1473854783,"description":"Audio: English\r\nLegendas/subtitles: Português (HARDSUBED)\r\n\r\n=============================================\r\nO Japão tem uma surpreendente variedade de paisagens, do Norte, onde águias marinhas andam em águas congeladas, até as ilhas do Sudeste subtropical, com corais de recife e mangues, e as ilhas Centrais, com florestas montanhosas, lar de ursos e macacos. Cada área tem seus desafios, e todos que vivem ali têm suas próprias estratégias de sobrevivência nestes ambientes imprevisíveis.\r\nNestas paisagens ricas e variadas, permanece uma poderosa associação entre as pessoas e a vida selvagem, apesar do fato do Japão ser uma das nações mais modernas, povoadas e insdustrializadas do planeta.\r\n\r\nEpisódio 1: Honshu\r\nEpisódio 2: Ilhas do Sudoeste\r\nEpisódio 3: Hokkaido\r\n=============================================\r\n\r\nID                             : 1\r\nFormat                         : AVC\r\nFormat/Info                    : Advanced Video Codec\r\nFormat profile                 :   \r\nFormat settings, CABAC         : Yes\r\nFormat settings, ReFrames      : 4 frames\r\nCodec ID                       : V_MPEG4/ISO/AVC\r\nDuration                       : 49mn 18s\r\nBit rate                       : 2 499 Kbps\r\nWidth                          : 1 280 pixels\r\nHeight                         : 720 pixels\r\nDisplay aspect ratio           : 16:9\r\nFrame rate mode                : Constant\r\nFrame rate                     : 59.880 fps\r\nOriginal frame rate            : 59.940 fps\r\nColor space                    : YUV\r\nChroma subsampling             : 4:2:0\r\nBit depth                      : 8 bits\r\nScan type                      : Progressive\r\nBits/(Pixel*Frame)             : 0.045\r\nStream size                    : 863 MiB (85%)\r\n\r\n\r\nAudio\r\nID                             : 2\r\nFormat                         : AC-3\r\nFormat/Info                    : Audio Coding 3\r\nMode extension                 : CM (complete main)\r\nFormat settings, Endianness    : Big\r\nCodec ID                       : A_AC3\r\nDuration                       : 49mn 18s\r\nBit rate mode                  : Constant\r\nBit rate                       : 384 Kbps\r\nChannel(s)                     : 2 channels\r\nChannel positions              : Front: L R\r\nSampling rate                  : 48.0 KHz\r\nBit depth                      : 16 bits\r\nCompression mode               : Lossy\r\nDelay relative to video        : 21ms\r\nStream size                    : 135 MiB (13%)\r\nLanguage                       : English\r\nDefault                        : Yes\r\nForced                         : No","torrent":{"xt":"urn:btih:1e02f994d9ec19537effda67644cb05c64b50188","amp;dn":"BBC+Jap%26atilde%3Bo+Selvagem+2015+HDTV+720p+Legendado+PT-BT","amp;tr":["udp%3A%2F%2Ftracker.leechers-paradise.org%3A6969","udp%3A%2F%2Fzer0day.ch%3A1337","udp%3A%2F%2Fopen.demonii.com%3A1337","udp%3A%2F%2Ftracker.coppersurfer.tk%3A6969","udp%3A%2F%2Fexodus.desync.com%3A6969"],"infoHash":"1e02f994d9ec19537effda67644cb05c64b50188","infoHashBuffer":{"type":"Buffer","data":[30,2,249,148,217,236,25,83,126,255,218,103,100,76,176,92,100,181,1,136]},"announce":[],"urlList":[]}}